{"title":"Independence Day 1996 BDRip Hindi~3385VKSH","uid":5749039,"size":2236486752,"categoryP":"video","categoryS":"hd___movies","magnet":"?xt=urn:btih:8ffbdfff0e245f8bc634daec7198156fb2cadaf3&amp;dn=Independence+Day+1996+BDRip+Hindi%7E3385VKSH&amp;tr=udp%3A%2F%2Ftracker.openbittorrent.com%3A80&amp;tr=udp%3A%2F%2Fopen.demonii.com%3A1337&amp;tr=udp%3A%2F%2Ftracker.coppersurfer.tk%3A6969&amp;tr=udp%3A%2F%2Fexodus.desync.com%3A6969","seeders":0,"leechers":1,"uploader":"3385VKSH","files":-1,"time":1281343464,"description":"General\nComplete name                    : Independence Day 1996 BDRip Hindi~3385VKSH\nFormat                           : Matroska\nFile size                        : 2.08 GiB\nDuration                         : 2h 18mn\nOverall bit rate                 : 2 146 Kbps\nEncoded date                     : UTC 2010-08-06 19:40:29\nWriting application              : mkvmerge v4.1.1 ('Bouncin' Back') built on Jul  3 2010 22:54:08\nWriting library                  : libebml v1.0.0 + libmatroska v1.0.0\n\nVideo\nID                               : 1\nFormat                           : AVC\nFormat/Info                      : Advanced Video Codec\nFormat profile                   : &lt;a class=&quot;__cf_email__&quot; href=&quot;/cdn-cgi/l/email-protection&quot; data-cfemail=&quot;2f624e46416f631b011e&quot;&gt;[email&amp;#160;protected]&lt;/a&gt;&lt;script data-cfhash='f9e31' type=&quot;text/javascript&quot;&gt;\n/* &lt;![CDATA[ */!function(){try{var t=&quot;currentScript&quot;in document?document.currentScript:function(){for(var t=document.getElementsByTagName(&quot;script&quot;),e=t.length;e--;)if(t[e].getAttribute(&quot;data-cfhash&quot;))return t[e]}();if(t&amp;&amp;t.previousSibling){var e,r,n,i,c=t.previousSibling,a=c.getAttribute(&quot;data-cfemail&quot;);if(a){for(e=&quot;&quot;,r=parseInt(a.substr(0,2),16),n=2;a.length-n;n+=2)i=parseInt(a.substr(n,2),16)^r,e+=String.fromCharCode(i);e=document.createTextNode(e),c.parentNode.replaceChild(e,c)}t.parentNode.removeChild(t);}}catch(u){}}()/* ]]&gt; */&lt;/script&gt;\nFormat settings, CABAC           : Yes\nFormat settings, ReFrames        : 4 frames\nFormat settings, GOP             : M=1, N=3\nMuxing mode                      : Container profile=&lt;a class=&quot;__cf_email__&quot; href=&quot;/cdn-cgi/l/email-protection&quot; data-cfemail=&quot;63360d080d0c140d23574d52&quot;&gt;[email&amp;#160;protected]&lt;/a&gt;&lt;script data-cfhash='f9e31' type=&quot;text/javascript&quot;&gt;\n/* &lt;![CDATA[ */!function(){try{var t=&quot;currentScript&quot;in document?document.currentScript:function(){for(var t=document.getElementsByTagName(&quot;script&quot;),e=t.length;e--;)if(t[e].getAttribute(&quot;data-cfhash&quot;))return t[e]}();if(t&amp;&amp;t.previousSibling){var e,r,n,i,c=t.previousSibling,a=c.getAttribute(&quot;data-cfemail&quot;);if(a){for(e=&quot;&quot;,r=parseInt(a.substr(0,2),16),n=2;a.length-n;n+=2)i=parseInt(a.substr(n,2),16)^r,e+=String.fromCharCode(i);e=document.createTextNode(e),c.parentNode.replaceChild(e,c)}t.parentNode.removeChild(t);}}catch(u){}}()/* ]]&gt; */&lt;/script&gt;\nCodec ID                         : V_MPEG4/ISO/AVC\nDuration                         : 2h 18mn\nBit rate                         : 1 751 Kbps\nWidth                            : 1 280 pixels\nHeight                           : 544 pixels\nDisplay aspect ratio             : 2.35:1\nFrame rate                       : 25.000 fps\nOriginal frame rate              : 23.976 fps\nColor space                      : YUV\nChroma subsampling               : 4:2:0\nBit depth                        : 8 bits\nScan type                        : Progressive\nBits/(Pixel*Frame)               : 0.101\nStream size                      : 1.73 GiB (83%)\nWriting library                  : x264 core 68 r1183M f21daff\nLanguage                         : Hindi\n\nAudio\nID                               : 2\nFormat                           : MPEG Audio\nFormat version                   : Version 1\nFormat profile                   : Layer 3\nMode                             : Joint stereo\nCodec ID                         : A_MPEG/L3\nCodec ID/Hint                    : MP3\nDuration                         : 2h 18mn\nBit rate mode                    : Constant\nBit rate                         : 320 Kbps\nChannel(s)                       : 2 channels\nSampling rate                    : 48.0 KHz\nVideo delay                      : 16ms\nStream size                      : 318 MiB (15%)\nLanguage                         : Hindi\n\n","torrent":{"xt":"urn:btih:8ffbdfff0e245f8bc634daec7198156fb2cadaf3","amp;dn":"Independence+Day+1996+BDRip+Hindi%7E3385VKSH","amp;tr":["udp%3A%2F%2Ftracker.openbittorrent.com%3A80","udp%3A%2F%2Fopen.demonii.com%3A1337","udp%3A%2F%2Ftracker.coppersurfer.tk%3A6969","udp%3A%2F%2Fexodus.desync.com%3A6969"],"infoHash":"8ffbdfff0e245f8bc634daec7198156fb2cadaf3","infoHashBuffer":{"type":"Buffer","data":[143,251,223,255,14,36,95,139,198,52,218,236,113,152,21,111,178,202,218,243]},"announce":[],"urlList":[]}}